<?xml version="1.0" encoding="UTF-8"?>
<svg xmlns="http://www.w3.org/2000/svg" viewBox="0 0 420 80">
  <defs>
    <style>
      .cls-1 {
        fill: none;
        stroke: #6a4baf;
        stroke-linecap: round;
        stroke-miterlimit: 10;
        stroke-width: 8px;
      }
    </style>
  </defs>
  <g id="tagline">
    <g>
      <path d="M87.32,64.01c.02-.54.02-1.06.02-1.58,0-.07-.02-.16-.05-.22-.56-1.24-1.01-2.52-1.39-3.83-.05-.14-.05-.29-.05-.45.02-.29.23-.49.5-.5.29-.02.49.14.58.43.11.34.2.7.31,1.04.18.52.38,1.04.56,1.58.04.05.07.11.11.16.04-.05.09-.11.11-.18.27-.83.56-1.66.83-2.49.07-.22.2-.4.45-.45.2-.04.4,0,.56.16.14.18.18.36.11.58-.23.67-.47,1.33-.7,2-.25.68-.5,1.37-.76,2.05-.02.07-.02.16-.04.23,0,.58-.04,1.13-.04,1.69-.02,1.28-.02,2.56-.04,3.83,0,.38.05.76.07,1.15,0,.07,0,.16-.02.25-.05.27-.29.47-.56.47s-.5-.22-.54-.5c-.04-.22-.05-.45-.05-.67-.02-.74-.04-1.49-.04-2.23h-.04c.04-.85.07-1.69.11-2.54Z"/>
      <path d="M90.92,59.22c.07-.27.16-.54.27-.79.16-.4.47-.7.88-.86.63-.23,1.26-.23,1.89-.02.47.16.77.5.95.95.23.56.32,1.13.4,1.71.07.63.14,1.26.16,1.91.04,1.06.04,2.12-.02,3.21-.04.88.04,1.8-.18,2.68-.07.32-.2.65-.32.95-.18.4-.52.63-.92.76-.76.23-1.53.23-2.25-.11-.29-.14-.52-.32-.63-.61-.16-.36-.32-.72-.38-1.1-.09-.72-.11-1.44-.14-2.16-.04-.85-.05-1.71-.09-2.56-.02-1.33.11-2.65.38-3.96ZM94.33,61.38c-.05-.68-.16-1.37-.31-2.03-.14-.68-.32-.79-.99-.79-.63,0-.77.11-.95.7-.02.04-.04.09-.04.14-.09.58-.22,1.15-.27,1.73-.05.81-.09,1.6-.07,2.41,0,1.1.02,2.2.07,3.28.04.47.14.94.25,1.4.09.34.36.49.68.5.23.02.45.02.67,0,.32-.04.59-.16.67-.49.11-.41.22-.85.25-1.28.05-1.26.09-2.52.13-3.66-.04-.74-.02-1.33-.09-1.93Z"/>
      <path d="M100.07,64.5c-.11,1.08-.14,2.18-.4,3.24-.14.54-.38,1.04-.77,1.46-.45.47-.99.65-1.6.43-.59-.22-.9-.68-.99-1.28-.07-.5-.14-1.01-.16-1.53-.04-1.57-.13-3.13-.07-4.7.04-1.28.07-2.54.07-3.82v-.45c0-.31.16-.5.43-.56.25-.04.5.09.61.36.05.13.07.27.07.41.02.95.07,1.91,0,2.84-.13,1.49-.07,2.97-.05,4.46,0,.88.11,1.78.18,2.68.02.22.07.45.32.49.25.05.4-.13.52-.31.34-.49.43-1.04.5-1.6.09-.79.18-1.57.22-2.34.05-1.01.09-2.03.11-3.04.02-1.06.02-2.12.04-3.19,0-.09.02-.16.05-.25.07-.23.29-.38.54-.36.25.04.43.18.49.43.02.13.02.27.02.4.02.9,0,1.8,0,3.08-.02.79-.04,1.98-.13,3.13Z"/>
      <path d="M100.89,64.01c.04-.7.02-1.39.02-2.07v-.97c0-.63-.02-1.24.09-1.87.05-.29.04-.59.05-.88.04-.45.23-.65.68-.67.11,0,.23.02.36.02.65-.04,1.08.29,1.44.79.32.47.41,1.01.43,1.57.02.74.04,1.48.04,2.21,0,.77-.31,1.39-.95,1.82q-.25.18-.14.49c.34.9.58,1.84.79,2.79.13.56.27,1.12.4,1.67.04.13.04.25.04.36-.04.23-.2.43-.43.49-.23.04-.47-.05-.59-.27-.07-.14-.09-.31-.14-.45-.29-1.17-.58-2.34-.88-3.51-.02-.07-.05-.13-.09-.2-.04.07-.09.14-.09.22v2.86c0,.27.02.54,0,.81-.02.29-.22.49-.49.5-.31.04-.54-.14-.59-.45-.02-.09-.04-.18-.04-.27v-1.91s-.02-.02-.04-.02c.05-1.03.11-2.03.14-3.06ZM102.05,62.91c0,.25.05.29.29.16.36-.2.56-.5.56-.92s.02-.77,0-1.15c-.02-.5-.05-1.03-.09-1.55-.04-.25-.16-.47-.36-.65-.05-.05-.14-.09-.2-.07-.05,0-.07.11-.09.18-.13.83-.16,1.66-.11,2.5v1.49Z"/>
      <path d="M109.84,59.62c0-.22.02-.41.02-.61.02-.16-.05-.23-.22-.23-.25,0-.49.02-.74-.02-.16-.02-.32-.09-.45-.18-.18-.14-.22-.4-.13-.61.09-.22.27-.32.52-.32.92,0,1.84.02,2.74.04h.59c.38-.02.65.22.67.56.02.32-.25.58-.63.58-.27,0-.54-.04-.81-.04-.38-.02-.43.02-.43.4,0,.95,0,1.93.02,2.9,0,1.73.04,3.47.05,5.22.02.54.02,1.1.02,1.66,0,.11,0,.23-.04.34-.07.25-.29.41-.52.41s-.43-.16-.52-.4c-.02-.09-.04-.2-.04-.29-.02-1.67-.04-3.33-.05-5.01h-.05v-4.39Z"/>
      <path d="M113.8,59.22c.07-.27.16-.54.27-.79.16-.4.47-.7.88-.86.63-.23,1.26-.23,1.89-.02.47.16.77.5.95.95.23.56.32,1.13.4,1.71.07.63.14,1.26.16,1.91.04,1.06.04,2.12-.02,3.21-.04.88.04,1.8-.18,2.68-.07.32-.2.65-.32.95-.18.4-.52.63-.92.76-.76.23-1.53.23-2.25-.11-.29-.14-.52-.32-.63-.61-.16-.36-.32-.72-.38-1.1-.09-.72-.11-1.44-.14-2.16-.04-.85-.05-1.71-.09-2.56-.02-1.33.11-2.65.38-3.96ZM117.2,61.38c-.05-.68-.16-1.37-.31-2.03-.14-.68-.32-.79-.99-.79-.63,0-.77.11-.95.7-.02.04-.04.09-.04.14-.09.58-.22,1.15-.27,1.73-.05.81-.09,1.6-.07,2.41,0,1.1.02,2.2.07,3.28.04.47.14.94.25,1.4.09.34.36.49.68.5.23.02.45.02.67,0,.32-.04.59-.16.67-.49.11-.41.22-.85.25-1.28.05-1.26.09-2.52.13-3.66-.04-.74-.02-1.33-.09-1.93Z"/>
      <path d="M122.19,62.84c-.14.86-.58,1.6-1.37,2.05-.14.07-.29.14-.45.16-.2.04-.25.14-.23.32,0,.2.04.38.04.58,0,.43-.04.86-.04,1.3-.02.56-.04,1.12-.05,1.67v.27c-.04.36-.25.58-.58.56-.32,0-.58-.29-.56-.63.04-.95.09-1.89.09-2.83,0-1.39-.04-2.75-.04-4.14-.02-1.03.02-2.05.02-3.08.02-.34.04-.67.04-.99,0-.34.22-.61.54-.61.31,0,.59.02.9-.02.65-.05,1.62.63,1.73,1.39.07.58.13,1.17.18,1.69-.07.81-.09,1.57-.22,2.3ZM120.1,61.49c.02.72.04,1.46.07,2.2,0,.07.04.13.05.2.05-.04.13-.05.2-.09.04-.02.07-.05.09-.07.38-.36.56-.81.61-1.31.02-.32.07-.63.07-.95,0-.74-.02-1.48-.04-2.21-.02-.32-.25-.5-.52-.61-.29-.13-.47,0-.49.29-.02.86-.05,1.71-.09,2.58h.04Z"/>
      <path d="M126.78,67.65c.14-.79.32-1.57.47-2.34.22-1.26.45-2.52.65-3.78.14-.97.22-1.96.34-2.94.02-.18.05-.38.11-.54.05-.16.13-.32.23-.45.32-.36.79-.29.97.16.14.34.25.68.34,1.06.18.79.34,1.6.49,2.41.11.54.14,1.1.23,1.66.13.85.31,1.67.4,2.5.14,1.21.4,2.36.61,3.55.02.05.02.11.04.16.02.34-.2.61-.5.65-.29.02-.58-.18-.63-.49-.2-1.24-.5-2.47-.61-3.73-.05-.52-.09-.54-.5-.2-.36.27-.72.56-1.06.86-.09.07-.18.2-.2.31-.16.9-.31,1.8-.45,2.68-.05.34-.22.54-.49.58-.38.05-.67-.22-.67-.59.07-.5.14-1.03.23-1.53ZM128.56,64.48c.05,0,.11,0,.14-.04.27-.18.52-.38.79-.56.09-.07.11-.16.09-.27-.04-.2-.05-.4-.09-.61-.11-.67-.22-1.35-.32-2.02,0-.05-.05-.09-.07-.14-.02.04-.04.09-.05.14,0,.04,0,.09-.02.14-.07.67-.16,1.33-.25,1.98-.07.41-.16.83-.23,1.26,0,.02.02.07.02.11Z"/>
      <path d="M132.32,58.3v-.31c.05-.29.25-.47.52-.47.27-.02.5.16.56.45.02.07.02.14.02.22,0,1.84,0,3.67-.02,5.49,0,.79-.07,1.57-.07,2.34s.02,1.58.04,2.38c0,.18.07.23.25.23.25-.02.52,0,.77,0,.36,0,.59.22.61.54,0,.31-.2.58-.52.58-.52.02-1.06.02-1.6,0-.36,0-.56-.23-.61-.59-.02-.14-.04-.31-.04-.45,0-1.46-.02-2.9,0-4.36.02-1.12.07-2.21.11-3.33h-.04c0-.9,0-1.82.02-2.72Z"/>
      <path d="M135.56,63.52c0-.25.04-.49.05-.72,0-.09.02-.18,0-.27-.11-.74-.04-1.46.02-2.2.05-.56.04-1.15.04-1.73.02-.18,0-.36.04-.56.04-.27.23-.43.5-.49.4-.07.76-.13,1.15.02.61.22,1.04.59,1.3,1.21.31.77.36,1.58.18,2.39-.11.5-.38.92-.72,1.3-.2.2-.2.22.02.4.38.31.63.7.79,1.15.58,1.66.4,3.24-.58,4.72-.23.34-.54.61-.86.85-.36.23-.74.32-1.17.27-.38-.04-.61-.25-.7-.61-.05-.2-.07-.4-.07-.59v-2.58c0-.85,0-1.71.02-2.56ZM136.66,66.04v.9c0,.47-.02.95,0,1.44,0,.09.04.2.07.29.09-.05.2-.07.27-.14.18-.14.34-.31.47-.5.72-1.15.88-2.38.38-3.66-.16-.45-.49-.72-.9-.9-.2-.09-.27-.05-.27.16v2.41h-.02ZM136.68,61.43v.49c.02.2.09.23.23.13.31-.23.59-.5.74-.86.29-.74.23-1.44-.13-2.14-.09-.18-.25-.31-.47-.36-.2-.07-.25-.04-.27.18-.02.86-.05,1.71-.07,2.57h-.04Z"/>
      <path d="M143.82,64.5c-.11,1.08-.14,2.18-.4,3.24-.14.54-.38,1.04-.77,1.46-.45.47-.99.65-1.6.43-.59-.22-.9-.68-.99-1.28-.07-.5-.14-1.01-.16-1.53-.04-1.57-.13-3.13-.07-4.7.04-1.28.07-2.54.07-3.82v-.45c0-.31.16-.5.43-.56.25-.04.5.09.61.36.05.13.07.27.07.41.02.95.07,1.91,0,2.84-.13,1.49-.07,2.97-.05,4.46,0,.88.11,1.78.18,2.68.02.22.07.45.32.49.25.05.4-.13.52-.31.34-.49.43-1.04.5-1.6.09-.79.18-1.57.22-2.34.05-1.01.09-2.03.11-3.04.02-1.06.02-2.12.04-3.19,0-.09.02-.16.05-.25.07-.23.29-.38.54-.36.25.04.43.18.49.43.02.13.02.27.02.4.02.9,0,1.8,0,3.08-.02.79-.04,1.98-.13,3.13Z"/>
      <path d="M149.1,61.52c0,.94.02,1.85-.05,2.77-.09,1.58,0,3.17,0,4.75,0,.14,0,.27-.04.41-.07.27-.27.42-.56.42-.27-.02-.47-.2-.52-.47-.02-.07-.02-.16-.02-.23,0-1.06-.04-2.14-.04-3.21,0-.59.05-1.19.07-1.78.02-1.01.02-2,.02-3.01,0-.04-.02-.09-.04-.13-.05.04-.11.05-.13.09-.05.11-.09.23-.14.34-.11.27-.2.56-.31.83-.11.22-.29.32-.54.32s-.43-.11-.52-.32c-.13-.27-.22-.56-.32-.83-.04-.13-.09-.25-.14-.38-.02-.04-.07-.04-.11-.07-.02.04-.04.05-.04.09-.02.09-.04.18-.02.29.02,1.08.05,2.18.07,3.28.02,1.01,0,2.03,0,3.06,0,.43-.02.88-.02,1.31,0,.11,0,.22-.02.32-.04.31-.23.49-.54.49-.27,0-.5-.18-.54-.47-.02-.09-.02-.18-.02-.29.02-1.06.04-2.12.05-3.21,0-.36-.04-.72-.04-1.08-.02-1.42-.04-2.83-.07-4.23,0-.79-.04-1.58-.04-2.36,0-.16.02-.34.09-.47.2-.45.76-.5,1.01-.09.18.29.32.61.45.94.2.52.36,1.04.56,1.57.04.11.14.18.22.29.07-.11.14-.18.2-.29.18-.5.34-1.03.54-1.53.13-.32.29-.65.45-.95.11-.23.32-.32.59-.29.27.04.41.22.49.47.04.16.04.34.04.5-.02.99-.04,1.96-.04,2.95v.18Z"/>
      <path d="M150.16,66.26c.04-.4.27-.61.59-.58.32.02.52.29.5.67v1.66c0,.22.04.45.07.67.05.23.23.31.4.11.11-.14.2-.32.22-.5.05-1.17-.02-2.32-.38-3.44-.25-.77-.61-1.49-1.06-2.18-.16-.23-.32-.45-.45-.7-.25-.45-.38-.92-.36-1.44.02-.5.02-1.01.07-1.49.11-.72.41-1.31,1.06-1.67.41-.23,1.42-.2,1.87.23.27.25.4.58.43.92.04.27.04.56.02.83-.02.34-.23.56-.54.56-.32-.02-.54-.23-.56-.59,0-.16.02-.34,0-.5-.04-.18-.04-.38-.27-.41-.32-.07-.49-.07-.65.18-.13.22-.23.49-.27.74-.05.43-.05.86-.05,1.31,0,.4.14.76.38,1.06.56.74.94,1.57,1.3,2.41.34.83.49,1.71.54,2.61.04.54.04,1.1.04,1.66-.02.67-.32,1.21-.92,1.53-.36.2-.74.22-1.1.11-.45-.14-.68-.54-.77-.97-.09-.32-.09-.67-.11-1.01-.02-.18-.02-.36-.02-.54h.02c0-.4-.02-.81,0-1.21Z"/>
      <path d="M157.32,63.52c0-.25.04-.49.05-.72,0-.09.02-.18,0-.27-.11-.74-.04-1.46.02-2.2.05-.56.04-1.15.04-1.73.02-.18,0-.36.04-.56.04-.27.23-.43.5-.49.4-.07.76-.13,1.15.02.61.22,1.04.59,1.3,1.21.31.77.36,1.58.18,2.39-.11.5-.38.92-.72,1.3-.2.2-.2.22.02.4.38.31.63.7.79,1.15.58,1.66.4,3.24-.58,4.72-.23.34-.54.61-.86.85-.36.23-.74.32-1.17.27-.38-.04-.61-.25-.7-.61-.05-.2-.07-.4-.07-.59v-2.58c0-.85,0-1.71.02-2.56ZM158.42,66.04v.9c0,.47-.02.95,0,1.44,0,.09.04.2.07.29.09-.05.2-.07.27-.14.18-.14.34-.31.47-.5.72-1.15.88-2.38.38-3.66-.16-.45-.49-.72-.9-.9-.2-.09-.27-.05-.27.16v2.41h-.02ZM158.44,61.43v.49c.02.2.09.23.23.13.31-.23.59-.5.74-.86.29-.74.23-1.44-.13-2.14-.09-.18-.25-.31-.47-.36-.2-.07-.25-.04-.27.18-.02.86-.05,1.71-.07,2.57h-.04Z"/>
      <path d="M163.05,64.01c.02-.54.02-1.06.02-1.58,0-.07-.02-.16-.05-.22-.56-1.24-1.01-2.52-1.39-3.83-.05-.14-.05-.29-.05-.45.02-.29.23-.49.5-.5.29-.02.49.14.58.43.11.34.2.7.31,1.04.18.52.38,1.04.56,1.58.04.05.07.11.11.16.04-.05.09-.11.11-.18.27-.83.56-1.66.83-2.49.07-.22.2-.4.45-.45.2-.04.4,0,.56.16.14.18.18.36.11.58-.23.67-.47,1.33-.7,2-.25.68-.5,1.37-.76,2.05-.02.07-.02.16-.04.23,0,.58-.04,1.13-.04,1.69-.02,1.28-.02,2.56-.04,3.83,0,.38.05.76.07,1.15,0,.07,0,.16-.02.25-.05.27-.29.47-.56.47s-.5-.22-.54-.5c-.04-.22-.05-.45-.05-.67-.02-.74-.04-1.49-.04-2.23h-.04c.04-.85.07-1.69.11-2.54Z"/>
      <path d="M171.33,64.01c.02-.54.02-1.06.02-1.58,0-.07-.02-.16-.05-.22-.56-1.24-1.01-2.52-1.39-3.83-.05-.14-.05-.29-.05-.45.02-.29.23-.49.5-.5.29-.02.49.14.58.43.11.34.2.7.31,1.04.18.52.38,1.04.56,1.58.04.05.07.11.11.16.04-.05.09-.11.11-.18.27-.83.56-1.66.83-2.49.07-.22.2-.4.45-.45.2-.04.4,0,.56.16.14.18.18.36.11.58-.23.67-.47,1.33-.7,2-.25.68-.5,1.37-.76,2.05-.02.07-.02.16-.04.23,0,.58-.04,1.13-.04,1.69-.02,1.28-.02,2.56-.04,3.83,0,.38.05.76.07,1.15,0,.07,0,.16-.02.25-.05.27-.29.47-.56.47s-.5-.22-.54-.5c-.04-.22-.05-.45-.05-.67-.02-.74-.04-1.49-.04-2.23h-.04c.04-.85.07-1.69.11-2.54Z"/>
      <path d="M174.58,63.27c0-.29-.04-.59-.02-.9.02-.16.02-.31.02-.49,0-1.15.04-2.3.04-3.47,0-.4.16-.65.58-.68.49-.04.97-.02,1.46-.02.22,0,.41.05.61.07.38.04.59.31.56.65-.02.32-.29.5-.67.47-.34-.02-.68-.07-1.03-.07-.38-.02-.38,0-.4.38,0,.85-.02,1.69-.05,2.56,0,.23-.02.47-.02.7,0,.32.04.36.34.36.23,0,.45-.02.68-.04.31-.02.54.14.61.41.07.31-.05.59-.34.68-.13.05-.29.05-.43.05-.22.02-.43,0-.65,0-.16,0-.23.07-.23.25v.81c.02,1.08.04,2.18.07,3.26,0,.43.04.47.49.4.2-.04.4-.09.59-.09.34,0,.56.2.58.49.04.32-.16.54-.49.61-.49.11-.99.14-1.49.11-.4-.04-.68-.27-.76-.67-.13-.68-.09-1.44-.09-2.12,0-.56.02-1.12.02-1.67,0-.67.05-1.35.02-2.03Z"/>
      <path d="M178.62,67.65c.14-.79.32-1.57.47-2.34.22-1.26.45-2.52.65-3.78.14-.97.22-1.96.34-2.94.02-.18.05-.38.11-.54.05-.16.13-.32.23-.45.32-.36.79-.29.97.16.14.34.25.68.34,1.06.18.79.34,1.6.49,2.41.11.54.14,1.1.23,1.66.13.85.31,1.67.4,2.5.14,1.21.4,2.36.61,3.55.02.05.02.11.04.16.02.34-.2.61-.5.65-.29.02-.58-.18-.63-.49-.2-1.24-.5-2.47-.61-3.73-.05-.52-.09-.54-.5-.2-.36.27-.72.56-1.06.86-.09.07-.18.2-.2.31-.16.9-.31,1.8-.45,2.68-.05.34-.22.54-.49.58-.38.05-.67-.22-.67-.59.07-.5.14-1.03.23-1.53ZM180.4,64.48c.05,0,.11,0,.14-.04.27-.18.52-.38.79-.56.09-.07.11-.16.09-.27-.04-.2-.05-.4-.09-.61-.11-.67-.22-1.35-.32-2.02,0-.05-.05-.09-.07-.14-.02.04-.04.09-.05.14,0,.04,0,.09-.02.14-.07.67-.16,1.33-.25,1.98-.07.41-.16.83-.23,1.26,0,.02.02.07.02.11Z"/>
      <path d="M184.2,64.01c.04-.7.02-1.39.02-2.07v-.97c0-.63-.02-1.24.09-1.87.05-.29.04-.59.05-.88.04-.45.23-.65.68-.67.11,0,.23.02.36.02.65-.04,1.08.29,1.44.79.32.47.41,1.01.43,1.57.02.74.04,1.48.04,2.21,0,.77-.31,1.39-.95,1.82q-.25.18-.14.49c.34.9.58,1.84.79,2.79.13.56.27,1.12.4,1.67.04.13.04.25.04.36-.04.23-.2.43-.43.49-.23.04-.47-.05-.59-.27-.07-.14-.09-.31-.14-.45-.29-1.17-.58-2.34-.88-3.51-.02-.07-.05-.13-.09-.2-.04.07-.09.14-.09.22v2.86c0,.27.02.54,0,.81-.02.29-.22.49-.49.5-.31.04-.54-.14-.59-.45-.02-.09-.04-.18-.04-.27v-1.91s-.02-.02-.04-.02c.05-1.03.11-2.03.14-3.06ZM185.35,62.91c0,.25.05.29.29.16.36-.2.56-.5.56-.92s.02-.77,0-1.15c-.02-.5-.05-1.03-.09-1.55-.04-.25-.16-.47-.36-.65-.05-.05-.14-.09-.2-.07-.05,0-.07.11-.09.18-.13.83-.16,1.66-.11,2.5v1.49Z"/>
      <path d="M189.24,71c-.04.18-.05.38-.09.54-.09.38-.38.59-.7.52-.34-.07-.52-.43-.43-.81.14-.56.27-1.13.4-1.69.05-.25.22-.4.47-.43.22-.04.41.05.54.23.05.11.09.23.11.31-.09.49-.2.92-.29,1.33Z"/>
      <path d="M194.02,57.96c.02-.27.18-.47.45-.5.22-.05.49.07.58.31.05.11.09.23.09.36.11,1.06.2,2.12.31,3.19.09.9.22,1.78.32,2.68.02.29.07.59.05.88-.02.74.23,1.42.27,2.14.02.05.05.09.07.13.04-.04.07-.07.07-.13.07-.34.11-.72.18-1.08.16-1.04.34-2.09.49-3.13.14-1.06.23-2.14.34-3.21.05-.58.11-1.15.16-1.73.04-.36.25-.58.58-.56.31,0,.56.23.56.59-.02.43-.07.88-.11,1.31-.09.94-.2,1.85-.31,2.79-.07.59-.14,1.21-.23,1.8-.16,1.1-.34,2.2-.52,3.28-.14.81-.38,1.6-.74,2.34-.14.29-.34.5-.68.47-.38-.04-.5-.31-.58-.63-.22-.88-.36-1.78-.47-2.7-.02-.16-.05-.31-.07-.45-.05-.4-.09-.77-.13-1.17-.07-.61-.14-1.24-.2-1.87-.09-.83-.18-1.67-.25-2.52-.09-.76-.16-1.51-.23-2.29v-.31Z"/>
      <path d="M200.22,66.94v1.98c0,.11,0,.2-.04.31-.04.25-.25.41-.49.43-.25.02-.49-.13-.56-.36-.04-.13-.05-.27-.05-.42,0-.58.02-1.15.02-1.75.02-1.33.04-2.67.05-4,.02-1.28.02-2.56,0-3.83,0-.34-.02-.68-.04-1.03v-.18c.02-.38.25-.63.56-.63.32,0,.56.27.58.63,0,.52.02,1.04.02,1.57v3.94h-.05v3.33Z"/>
      <path d="M201.29,66.26c.04-.4.27-.61.59-.58.32.02.52.29.5.67v1.66c0,.22.04.45.07.67.05.23.23.31.4.11.11-.14.2-.32.22-.5.05-1.17-.02-2.32-.38-3.44-.25-.77-.61-1.49-1.06-2.18-.16-.23-.32-.45-.45-.7-.25-.45-.38-.92-.36-1.44.02-.5.02-1.01.07-1.49.11-.72.41-1.31,1.06-1.67.41-.23,1.42-.2,1.87.23.27.25.4.58.43.92.04.27.04.56.02.83-.02.34-.23.56-.54.56-.32-.02-.54-.23-.56-.59,0-.16.02-.34,0-.5-.04-.18-.04-.38-.27-.41-.32-.07-.49-.07-.65.18-.13.22-.23.49-.27.74-.05.43-.05.86-.05,1.31,0,.4.14.76.38,1.06.56.74.94,1.57,1.3,2.41.34.83.49,1.71.54,2.61.04.54.04,1.1.04,1.66-.02.67-.32,1.21-.92,1.53-.36.2-.74.22-1.1.11-.45-.14-.68-.54-.77-.97-.09-.32-.09-.67-.11-1.01-.02-.18-.02-.36-.02-.54h.02c0-.4-.02-.81,0-1.21Z"/>
      <path d="M208.86,64.5c-.11,1.08-.14,2.18-.4,3.24-.14.54-.38,1.04-.77,1.46-.45.47-.99.65-1.6.43-.59-.22-.9-.68-.99-1.28-.07-.5-.14-1.01-.16-1.53-.04-1.57-.13-3.13-.07-4.7.04-1.28.07-2.54.07-3.82v-.45c0-.31.16-.5.43-.56.25-.04.5.09.61.36.05.13.07.27.07.41.02.95.07,1.91,0,2.84-.13,1.49-.07,2.97-.05,4.46,0,.88.11,1.78.18,2.68.02.22.07.45.32.49.25.05.4-.13.52-.31.34-.49.43-1.04.5-1.6.09-.79.18-1.57.22-2.34.05-1.01.09-2.03.11-3.04.02-1.06.02-2.12.04-3.19,0-.09.02-.16.05-.25.07-.23.29-.38.54-.36.25.04.43.18.49.43.02.13.02.27.02.4.02.9,0,1.8,0,3.08-.02.79-.04,1.98-.13,3.13Z"/>
      <path d="M209.77,67.65c.14-.79.32-1.57.47-2.34.22-1.26.45-2.52.65-3.78.14-.97.22-1.96.34-2.94.02-.18.05-.38.11-.54.05-.16.13-.32.23-.45.32-.36.79-.29.97.16.14.34.25.68.34,1.06.18.79.34,1.6.49,2.41.11.54.14,1.1.23,1.66.13.85.31,1.67.4,2.5.14,1.21.4,2.36.61,3.55.02.05.02.11.04.16.02.34-.2.61-.5.65-.29.02-.58-.18-.63-.49-.2-1.24-.5-2.47-.61-3.73-.05-.52-.09-.54-.5-.2-.36.27-.72.56-1.06.86-.09.07-.18.2-.2.31-.16.9-.31,1.8-.45,2.68-.05.34-.22.54-.49.58-.38.05-.67-.22-.67-.59.07-.5.14-1.03.23-1.53ZM211.55,64.48c.05,0,.11,0,.14-.04.27-.18.52-.38.79-.56.09-.07.11-.16.09-.27-.04-.2-.05-.4-.09-.61-.11-.67-.22-1.35-.32-2.02,0-.05-.05-.09-.07-.14-.02.04-.04.09-.05.14,0,.04,0,.09-.02.14-.07.67-.16,1.33-.25,1.98-.07.41-.16.83-.23,1.26,0,.02.02.07.02.11Z"/>
      <path d="M215.32,58.3v-.31c.05-.29.25-.47.52-.47.27-.02.5.16.56.45.02.07.02.14.02.22,0,1.84,0,3.67-.02,5.49,0,.79-.07,1.57-.07,2.34s.02,1.58.04,2.38c0,.18.07.23.25.23.25-.02.52,0,.77,0,.36,0,.59.22.61.54,0,.31-.2.58-.52.58-.52.02-1.06.02-1.6,0-.36,0-.56-.23-.61-.59-.02-.14-.04-.31-.04-.45,0-1.46-.02-2.9,0-4.36.02-1.12.07-2.21.11-3.33h-.04c0-.9,0-1.82.02-2.72Z"/>
      <path d="M219.67,66.94v1.98c0,.11,0,.2-.04.31-.04.25-.25.41-.49.43-.25.02-.49-.13-.56-.36-.04-.13-.05-.27-.05-.42,0-.58.02-1.15.02-1.75.02-1.33.04-2.67.05-4,.02-1.28.02-2.56,0-3.83,0-.34-.02-.68-.04-1.03v-.18c.02-.38.25-.63.56-.63.32,0,.56.27.58.63,0,.52.02,1.04.02,1.57v3.94h-.05v3.33Z"/>
      <path d="M223.47,57.42c.63.02.92.54.74,1.12-.34,1.04-.65,2.09-.94,3.15-.41,1.55-.81,3.1-1.21,4.66-.18.67-.34,1.35-.5,2.03-.07.25-.05.27.22.31.18.02.36.04.56.04h1.15c.25,0,.47.16.52.4.07.25-.04.5-.27.65-.27.16-.59.16-.9.13-.43-.02-.85-.05-1.28-.09-.22-.02-.41-.02-.63-.05-.52-.09-.76-.45-.63-.96.32-1.22.65-2.45.97-3.67.31-1.24.59-2.48.9-3.73.22-.83.47-1.66.68-2.48.02-.04.04-.09.05-.14.05-.2.02-.25-.18-.25-.34.02-.68.05-1.03.05-.31.02-.61.04-.92.02-.29,0-.5-.23-.5-.52,0-.31.2-.52.52-.56.61-.04,1.24-.07,1.85-.13v.04c.27,0,.54-.02.81,0Z"/>
      <path d="M224.86,63.27c0-.29-.04-.59-.02-.9.02-.16.02-.31.02-.49,0-1.15.04-2.3.04-3.47,0-.4.16-.65.58-.68.49-.04.97-.02,1.46-.02.22,0,.41.05.61.07.38.04.59.31.56.65-.02.32-.29.5-.67.47-.34-.02-.68-.07-1.03-.07-.38-.02-.38,0-.4.38,0,.85-.02,1.69-.05,2.56,0,.23-.02.47-.02.7,0,.32.04.36.34.36.23,0,.45-.02.68-.04.31-.02.54.14.61.41.07.31-.05.59-.34.68-.13.05-.29.05-.43.05-.22.02-.43,0-.65,0-.16,0-.23.07-.23.25v.81c.02,1.08.04,2.18.07,3.26,0,.43.04.47.49.4.2-.04.4-.09.59-.09.34,0,.56.2.58.49.04.32-.16.54-.49.61-.49.11-.99.14-1.49.11-.4-.04-.68-.27-.76-.67-.13-.68-.09-1.44-.09-2.12,0-.56.02-1.12.02-1.67,0-.67.05-1.35.02-2.03Z"/>
      <path d="M228.69,61.78c-.07-1.13.07-2.27.07-3.4-.02-.47.29-.72.76-.74.68-.04,1.3.18,1.85.54.2.13.36.34.5.56.36.58.52,1.22.61,1.89.16,1.24.13,2.47.07,3.71-.04.74-.11,1.48-.25,2.2-.25,1.15-.88,2.07-1.67,2.88-.29.29-.67.41-1.08.36-.36-.04-.65-.27-.7-.63-.04-.36-.09-.72-.09-1.08-.02-1.03,0-2.05,0-3.1h-.05c0-1.06.05-2.12-.02-3.19ZM229.86,65v2.36c0,.31.02.63.04.94,0,.05.04.09.05.14.05-.04.11-.04.13-.07.43-.5.83-1.04,1.03-1.69.23-.76.31-1.53.34-2.3.04-1.01.11-2,0-3.01-.05-.58-.13-1.13-.34-1.69-.18-.47-.52-.72-.99-.85-.2-.05-.25-.02-.25.2-.04.77-.05,1.57-.05,2.36,0,.67.04,1.31.04,1.98.02.54,0,1.08,0,1.64h.02Z"/>
    </g>
  </g>
  <g id="logo-text">
    <g>
      <path d="M103.65,15.26v3.65c-.17,2.37-1.32,3.55-3.45,3.55h-2.75c-.87,0-1.68.15-2.45.45-.77.3-1.46.71-2.07,1.23-.62.52-1.12,1.13-1.53,1.85-.4.72-.65,1.51-.75,2.38l-.25,2.25v2.3c-1.4-.8-2.51-1.9-3.32-3.3-.82-1.4-1.23-2.95-1.23-4.65s.4-3.25,1.2-4.55c.8-1.3,1.92-2.4,3.35-3.3.77-.43,1.54-.78,2.33-1.05.78-.27,1.61-.48,2.48-.65.2-.03.53-.06,1-.08.47-.02.96-.03,1.48-.05.52-.02,1-.02,1.45-.02h4.52ZM99.1,32.91c1.4.77,2.51,1.85,3.33,3.25.82,1.4,1.22,2.95,1.22,4.65,0,1.37-.26,2.62-.77,3.77-.52,1.15-1.24,2.14-2.17,2.97-.93.73-1.83,1.3-2.7,1.7-.87.4-1.75.7-2.65.9-.9.2-1.84.32-2.83.35-.98.03-2.02.05-3.12.05h-3.55v-3.65c.17-2.37,1.32-3.55,3.45-3.55h2.75c.87,0,1.68-.15,2.45-.45.77-.3,1.45-.71,2.05-1.22.6-.52,1.11-1.14,1.52-1.87.42-.73.67-1.52.77-2.35l.25-2.25v-2.3Z"/>
      <path d="M118.75,22.56h5.4v3.65c-.2,2.37-1.35,3.55-3.45,3.55h-1.35c-.2,0-.33.02-.4.05-1.27.33-2.36,1.01-3.27,2.02-.92,1.02-1.51,2.16-1.77,3.43-.03.2-.06.4-.08.6-.02.2-.02.42-.02.65,0,.93.17,1.82.52,2.65.35.83.84,1.57,1.48,2.2.63.63,1.37,1.12,2.2,1.48.83.35,1.72.52,2.65.52h.05c2.1,0,3.25,1.18,3.45,3.55v3.65h-3.55c-1.93,0-3.75-.37-5.45-1.1-1.7-.73-3.18-1.74-4.45-3.03-1.27-1.28-2.27-2.78-3-4.47-.73-1.7-1.1-3.52-1.1-5.45,0-1.73.3-3.38.9-4.95.6-1.57,1.42-2.97,2.47-4.2,1.05-1.23,2.3-2.27,3.75-3.1,1.45-.83,3.03-1.38,4.73-1.65l.3-.05Z"/>
      <path d="M144.35,24.26v3.65c-.2,2.33-1.35,3.5-3.45,3.5h-.05c-.83,0-1.64.15-2.42.45-.78.3-1.48.72-2.08,1.25-.6.53-1.11,1.17-1.52,1.9-.42.73-.68,1.52-.77,2.35l-.25,2.25v10.95h-3.5c-2.17-.17-3.32-1.18-3.45-3.05v-25.1h3.6c.93,0,1.73.34,2.38,1.02.65.68.98,1.48.98,2.38v.3c1.47-.87,3.07-1.43,4.8-1.7.4-.07.77-.12,1.1-.15.33-.03.7-.03,1.1,0h3.55Z"/>
      <path d="M161.19,22.46c1.97,0,3.8.37,5.5,1.1,1.7.73,3.18,1.73,4.45,3,1.27,1.27,2.26,2.75,2.98,4.45.72,1.7,1.07,3.53,1.07,5.5s-.36,3.76-1.07,5.47c-.72,1.72-1.71,3.21-2.98,4.48-1.27,1.27-2.75,2.27-4.45,3-1.7.73-3.53,1.1-5.5,1.1s-3.8-.37-5.5-1.1c-1.7-.73-3.18-1.73-4.45-3-1.27-1.27-2.27-2.75-3-4.45-.73-1.7-1.1-3.53-1.1-5.5s.37-3.8,1.1-5.5c.73-1.7,1.73-3.18,3-4.45,1.27-1.27,2.75-2.27,4.45-3,1.7-.73,3.53-1.1,5.5-1.1ZM161.19,43.36c.93,0,1.82-.18,2.65-.55.83-.37,1.56-.86,2.18-1.47.62-.62,1.11-1.34,1.48-2.18.37-.83.55-1.72.55-2.65s-.17-1.86-.52-2.68c-.35-.82-.84-1.54-1.48-2.17-.63-.63-1.36-1.12-2.17-1.48-.82-.35-1.71-.52-2.68-.52s-1.82.17-2.67.52-1.58.84-2.2,1.48c-.62.63-1.11,1.36-1.48,2.17-.37.82-.55,1.71-.55,2.68s.18,1.82.55,2.65c.37.83.86,1.57,1.48,2.2.62.63,1.35,1.12,2.2,1.48.85.35,1.74.52,2.67.52Z"/>
      <path d="M184.74,24.31c2.07-1.23,4.43-1.85,7.1-1.85,1.97,0,3.8.37,5.5,1.1,1.7.73,3.18,1.73,4.45,3,1.27,1.27,2.27,2.75,3,4.45.73,1.7,1.1,3.53,1.1,5.5s-.37,3.8-1.1,5.5c-.73,1.7-1.73,3.18-3,4.45-1.27,1.27-2.75,2.27-4.45,3s-3.53,1.1-5.5,1.1c-1.83,0-3.58-.33-5.23-1-1.65-.67-3.1-1.58-4.35-2.72-1.25-1.15-2.27-2.53-3.05-4.12-.78-1.6-1.24-3.32-1.38-5.15l-.05-1.05V15.36h3.5c2.3,0,3.45,1.17,3.45,3.5v5.45ZM191.84,43.36c.97,0,1.87-.17,2.7-.52.83-.35,1.56-.83,2.17-1.45.62-.62,1.1-1.34,1.45-2.17.35-.83.52-1.73.52-2.7s-.18-1.87-.52-2.7c-.35-.83-.83-1.56-1.45-2.17-.62-.62-1.34-1.1-2.17-1.45-.83-.35-1.73-.52-2.7-.52s-1.87.17-2.7.52c-.83.35-1.56.83-2.17,1.45-.62.62-1.1,1.34-1.45,2.17-.35.83-.52,1.73-.52,2.7s.18,1.87.52,2.7c.35.83.83,1.56,1.45,2.17.62.62,1.34,1.1,2.17,1.45.83.35,1.73.52,2.7.52Z"/>
      <path d="M215.64,24.31c2.07-1.23,4.43-1.85,7.1-1.85,1.97,0,3.8.37,5.5,1.1,1.7.73,3.18,1.73,4.45,3,1.27,1.27,2.27,2.75,3,4.45.73,1.7,1.1,3.53,1.1,5.5s-.37,3.8-1.1,5.5c-.73,1.7-1.73,3.18-3,4.45-1.27,1.27-2.75,2.27-4.45,3s-3.53,1.1-5.5,1.1c-1.83,0-3.58-.33-5.23-1-1.65-.67-3.1-1.58-4.35-2.72-1.25-1.15-2.27-2.53-3.05-4.12-.78-1.6-1.24-3.32-1.38-5.15l-.05-1.05V15.36h3.5c2.3,0,3.45,1.17,3.45,3.5v5.45ZM222.74,43.36c.97,0,1.87-.17,2.7-.52.83-.35,1.56-.83,2.17-1.45.62-.62,1.1-1.34,1.45-2.17.35-.83.52-1.73.52-2.7s-.17-1.87-.52-2.7c-.35-.83-.83-1.56-1.45-2.17-.62-.62-1.34-1.1-2.17-1.45-.83-.35-1.73-.52-2.7-.52s-1.87.17-2.7.52c-.83.35-1.56.83-2.17,1.45-.62.62-1.1,1.34-1.45,2.17-.35.83-.53,1.73-.53,2.7s.18,1.87.53,2.7.83,1.56,1.45,2.17c.62.62,1.34,1.1,2.17,1.45.83.35,1.73.52,2.7.52Z"/>
      <path d="M243.29,15.06c.93,0,1.72.33,2.38,1,.65.67.97,1.47.97,2.4v32.1h-3.5c-2.17-.13-3.32-1.15-3.45-3.05V15.06h3.6Z"/>
      <path d="M275.89,25.96c0,1.93-.37,3.75-1.1,5.45-.73,1.7-1.73,3.19-3,4.48-1.27,1.28-2.74,2.29-4.42,3.02-1.68.73-3.49,1.1-5.42,1.1h-3.55v-3.65c.13-2.37,1.28-3.55,3.45-3.55h.05c1.17,0,2.24-.27,3.23-.8.98-.53,1.81-1.28,2.47-2.25h-5.85c-.17,0-.3.02-.4.05-1.23.33-2.33,1.01-3.3,2.02-.97,1.02-1.53,2.16-1.7,3.43-.1.4-.15.82-.15,1.25,0,.93.18,1.82.55,2.65.37.83.86,1.56,1.47,2.18.62.62,1.34,1.11,2.17,1.47.83.37,1.72.55,2.65.55h.05c2.13,0,3.28,1.18,3.45,3.55v3.65h-3.55c-.77,0-1.48-.07-2.15-.2-1.7-.23-3.27-.77-4.72-1.6s-2.7-1.88-3.75-3.12-1.87-2.66-2.45-4.23c-.58-1.57-.88-3.2-.88-4.9,0-1.3.17-2.56.5-3.78.33-1.22.82-2.36,1.45-3.42.63-1.07,1.4-2.04,2.3-2.92.9-.88,1.92-1.62,3.05-2.23.67-.4,1.38-.73,2.15-.98.77-.25,1.55-.44,2.35-.58l.3-.05h14.4c.23,1.03.35,2.17.35,3.4Z"/>
      <path d="M296.64,15.26v3.65c-.17,2.37-1.32,3.55-3.45,3.55h-2.75c-.87,0-1.68.15-2.45.45-.77.3-1.46.71-2.08,1.23-.62.52-1.12,1.13-1.53,1.85-.4.72-.65,1.51-.75,2.38l-.25,2.25v2.3c-1.4-.8-2.51-1.9-3.33-3.3-.82-1.4-1.22-2.95-1.22-4.65s.4-3.25,1.2-4.55c.8-1.3,1.92-2.4,3.35-3.3.77-.43,1.54-.78,2.33-1.05.78-.27,1.61-.48,2.47-.65.2-.03.53-.06,1-.08.47-.02.96-.03,1.48-.05.52-.02,1-.02,1.45-.02h4.52ZM292.09,32.91c1.4.77,2.51,1.85,3.33,3.25.82,1.4,1.22,2.95,1.22,4.65,0,1.37-.26,2.62-.77,3.77-.52,1.15-1.24,2.14-2.18,2.97-.93.73-1.83,1.3-2.7,1.7-.87.4-1.75.7-2.65.9-.9.2-1.84.32-2.83.35s-2.02.05-3.12.05h-3.55v-3.65c.17-2.37,1.32-3.55,3.45-3.55h2.75c.87,0,1.68-.15,2.45-.45.77-.3,1.45-.71,2.05-1.22.6-.52,1.11-1.14,1.52-1.87.42-.73.68-1.52.78-2.35l.25-2.25v-2.3Z"/>
      <path d="M311.74,22.56h5.4v3.65c-.2,2.37-1.35,3.55-3.45,3.55h-1.35c-.2,0-.33.02-.4.05-1.27.33-2.36,1.01-3.28,2.02-.92,1.02-1.51,2.16-1.78,3.43-.03.2-.06.4-.07.6-.02.2-.03.42-.03.65,0,.93.17,1.82.53,2.65.35.83.84,1.57,1.47,2.2.63.63,1.37,1.12,2.2,1.48.83.35,1.72.52,2.65.52h.05c2.1,0,3.25,1.18,3.45,3.55v3.65h-3.55c-1.93,0-3.75-.37-5.45-1.1-1.7-.73-3.18-1.74-4.45-3.03-1.27-1.28-2.27-2.78-3-4.47-.73-1.7-1.1-3.52-1.1-5.45,0-1.73.3-3.38.9-4.95.6-1.57,1.42-2.97,2.47-4.2,1.05-1.23,2.3-2.27,3.75-3.1,1.45-.83,3.03-1.38,4.73-1.65l.3-.05Z"/>
      <path d="M333.74,22.46c1.97,0,3.8.37,5.5,1.1,1.7.73,3.18,1.73,4.45,3,1.27,1.27,2.26,2.75,2.98,4.45.72,1.7,1.08,3.53,1.08,5.5s-.36,3.76-1.08,5.47c-.72,1.72-1.71,3.21-2.98,4.48s-2.75,2.27-4.45,3c-1.7.73-3.53,1.1-5.5,1.1s-3.8-.37-5.5-1.1c-1.7-.73-3.18-1.73-4.45-3-1.27-1.27-2.27-2.75-3-4.45-.73-1.7-1.1-3.53-1.1-5.5s.37-3.8,1.1-5.5c.73-1.7,1.73-3.18,3-4.45,1.27-1.27,2.75-2.27,4.45-3,1.7-.73,3.53-1.1,5.5-1.1ZM333.74,43.36c.93,0,1.82-.18,2.65-.55.83-.37,1.56-.86,2.17-1.47.62-.62,1.11-1.34,1.48-2.18.37-.83.55-1.72.55-2.65s-.17-1.86-.53-2.68c-.35-.82-.84-1.54-1.47-2.17-.63-.63-1.36-1.12-2.17-1.48-.82-.35-1.71-.52-2.67-.52s-1.83.17-2.68.52c-.85.35-1.58.84-2.2,1.48-.62.63-1.11,1.36-1.48,2.17-.37.82-.55,1.71-.55,2.68s.18,1.82.55,2.65c.37.83.86,1.57,1.48,2.2.62.63,1.35,1.12,2.2,1.48.85.35,1.74.52,2.68.52Z"/>
      <path d="M382.29,36.51c0,1.97-.36,3.81-1.08,5.52-.72,1.72-1.71,3.21-2.98,4.48s-2.76,2.27-4.47,3-3.56,1.1-5.53,1.1c-.7,0-1.35-.04-1.95-.12-.6-.08-1.18-.2-1.73-.35-.55-.15-1.1-.35-1.65-.6-.55-.25-1.14-.52-1.78-.82v6.8c0,2.33-1.15,3.5-3.45,3.5h-3.5v-22.15c-.07-1.87-.73-3.42-2-4.65-.2-.27-.47-.5-.8-.7-.7-.53-1.1-1.24-1.2-2.12-.1-.88.17-1.64.8-2.28,1-1,2.05-1.8,3.15-2.4,1.17.6,2.22,1.4,3.15,2.4.13.13.23.22.3.25.1-.13.21-.26.33-.38s.24-.26.38-.42c2.8-2.73,6.12-4.1,9.95-4.1,1.97,0,3.8.37,5.5,1.1,1.7.73,3.18,1.73,4.45,3,1.27,1.27,2.27,2.75,3,4.45.73,1.7,1.1,3.53,1.1,5.5ZM375.09,36.51c0-.97-.17-1.86-.53-2.68-.35-.82-.84-1.54-1.47-2.17-.63-.63-1.36-1.12-2.17-1.48-.82-.35-1.71-.52-2.68-.52s-1.92.18-2.77.55c-.85.37-1.58.88-2.17,1.52-.6.65-1.07,1.41-1.4,2.28-.33.87-.5,1.8-.5,2.8.03.93.23,1.8.6,2.6.37.8.87,1.5,1.5,2.1.63.6,1.36,1.07,2.18,1.4.82.33,1.67.5,2.57.5.97,0,1.87-.17,2.7-.52.83-.35,1.56-.84,2.17-1.48.62-.63,1.1-1.37,1.45-2.2.35-.83.53-1.73.53-2.7Z"/>
      <path d="M411.79,25.96c0,1.93-.37,3.75-1.1,5.45-.73,1.7-1.73,3.19-3,4.48-1.27,1.28-2.74,2.29-4.42,3.02-1.68.73-3.49,1.1-5.42,1.1h-3.55v-3.65c.13-2.37,1.28-3.55,3.45-3.55h.05c1.17,0,2.24-.27,3.23-.8.98-.53,1.81-1.28,2.47-2.25h-5.85c-.17,0-.3.02-.4.05-1.23.33-2.33,1.01-3.3,2.02-.97,1.02-1.53,2.16-1.7,3.43-.1.4-.15.82-.15,1.25,0,.93.18,1.82.55,2.65.37.83.86,1.56,1.47,2.18.62.62,1.34,1.11,2.17,1.47.83.37,1.72.55,2.65.55h.05c2.13,0,3.28,1.18,3.45,3.55v3.65h-3.55c-.77,0-1.48-.07-2.15-.2-1.7-.23-3.27-.77-4.72-1.6s-2.7-1.88-3.75-3.12-1.87-2.66-2.45-4.23c-.58-1.57-.88-3.2-.88-4.9,0-1.3.17-2.56.5-3.78.33-1.22.82-2.36,1.45-3.42.63-1.07,1.4-2.04,2.3-2.92.9-.88,1.92-1.62,3.05-2.23.67-.4,1.38-.73,2.15-.98.77-.25,1.55-.44,2.35-.58l.3-.05h14.4c.23,1.03.35,2.17.35,3.4Z"/>
    </g>
  </g>
<g id="horizontal_bars" data-name="horizontal bars">
  <path class="cls-1" d="M15.13,32.45v31.02">
    <animate attributeName="d" values="M15.13,32.45v31.02;M15.13,37.45v26.02;M15.13,32.45v31.02" dur="1.7s" repeatCount="indefinite" calcMode="spline" keySplines="0.42 0 0.58 1; 0.42 0 0.58 1" />
  </path>
  
  <path class="cls-1" d="M69.47,46.06v17.63">
    <animate attributeName="d" values="M69.47,46.06v17.63;M69.47,43.06v20.63;M69.47,46.06v17.63" dur="2.3s" repeatCount="indefinite" calcMode="spline" keySplines="0.42 0 0.58 1; 0.42 0 0.58 1" />
  </path>
  
  <path class="cls-1" d="M28.72,47.25v16.21">
    <animate attributeName="d" values="M28.72,47.25v16.21;M28.72,42.25v21.21;M28.72,47.25v16.21" dur="2.1s" repeatCount="indefinite" calcMode="spline" keySplines="0.42 0 0.58 1; 0.42 0 0.58 1" />
  </path>
  
  <path class="cls-1" d="M42.3,15.06v48.64">
    <animate attributeName="d" values="M42.3,15.06v48.64;M42.3,20.06v43.64;M42.3,15.06v48.64" dur="1.6s" repeatCount="indefinite" calcMode="spline" keySplines="0.42 0 0.58 1; 0.42 0 0.58 1" />
  </path>
  
  <path class="cls-1" d="M55.89,31.21v32.25">
    <animate attributeName="d" values="M55.89,31.21v32.25;M55.89,36.21v27.25;M55.89,31.21v32.25" dur="1.9s" repeatCount="indefinite" calcMode="spline" keySplines="0.42 0 0.58 1; 0.42 0 0.58 1" />
  </path>
</g>
</svg>
