<?xml version="1.0" encoding="UTF-8"?>
<svg xmlns="http://www.w3.org/2000/svg" viewBox="0 0 32 32">
  <defs>
    <style>
      .cls-1 {
        fill: #fff;
      }

      .cls-2 {
        fill: #8a4aff;
      }
    </style>
  </defs>
  <g id="Layer_9" data-name="Layer 9">
    <rect class="cls-1" x="0" width="32" height="32" rx="12" ry="12"/>
  </g>
  <g id="Layer_8" data-name="Layer 8">
    <path class="cls-2" d="M22.88,2.35v2.82c-.13,1.83-1.02,2.74-2.67,2.74h-2.13c-.67,0-1.3.12-1.89.35-.59.23-1.13.55-1.6.95-.48.4-.87.88-1.18,1.43-.31.55-.5,1.17-.58,1.84l-.19,1.74v1.78c-1.08-.62-1.94-1.47-2.57-2.55-.63-1.08-.95-2.28-.95-3.6s.31-2.51.93-3.52c.62-1.01,1.48-1.86,2.59-2.55.59-.33,1.19-.61,1.8-.81.61-.21,1.24-.37,1.91-.5.15-.03.41-.04.77-.06.36-.01.74-.03,1.14-.04.4-.01.77-.02,1.12-.02h3.5Z"/>
    <path class="cls-2" d="M19.36,16c1.08.59,1.94,1.43,2.57,2.51.63,1.08.95,2.28.95,3.6,0,1.06-.2,2.03-.6,2.92-.4.89-.96,1.66-1.68,2.3-.72.57-1.42,1-2.09,1.31-.67.31-1.35.54-2.05.7-.7.15-1.42.25-2.18.27-.76.03-1.57.04-2.42.04h-2.74v-2.82c.13-1.83,1.02-2.74,2.67-2.74h2.13c.67,0,1.3-.12,1.89-.35.59-.23,1.12-.55,1.59-.95.46-.4.86-.88,1.18-1.45.32-.57.52-1.17.6-1.82l.19-1.74v-1.78Z"/>
    <path class="cls-2" d="M2.35,9.12h2.82c1.83.13,2.74,1.02,2.74,2.67v2.13c0,.67.12,1.3.35,1.89.23.59.55,1.13.95,1.6.4.48.88.87,1.43,1.18.55.31,1.17.5,1.84.58l1.74.19h1.78c-.62,1.08-1.47,1.94-2.55,2.57-1.08.63-2.28.95-3.6.95s-2.51-.31-3.52-.93c-1.01-.62-1.86-1.48-2.55-2.59-.33-.59-.61-1.19-.81-1.8-.21-.61-.37-1.24-.5-1.91-.03-.15-.04-.41-.06-.77-.01-.36-.03-.74-.04-1.14-.01-.4-.02-.77-.02-1.12v-.75s0-2.74,0-2.74Z"/>
    <path class="cls-2" d="M16,12.64c.59-1.08,1.43-1.94,2.51-2.57,1.08-.63,2.28-.95,3.6-.95,1.06,0,2.03.2,2.92.6.89.4,1.66.96,2.3,1.68.57.72,1,1.42,1.31,2.09.31.67.54,1.35.7,2.05.15.7.25,1.42.27,2.18.03.76.04,1.57.04,2.42v2.74s-2.82,0-2.82,0c-1.83-.13-2.74-1.02-2.74-2.67v-2.13c0-.67-.12-1.3-.35-1.89-.23-.59-.55-1.12-.95-1.59-.4-.46-.88-.86-1.45-1.18-.57-.32-1.17-.52-1.82-.6l-1.74-.19h-1.78Z"/>
  </g>
</svg>