<?xml version="1.0" encoding="UTF-8"?>
<svg xmlns="http://www.w3.org/2000/svg" viewBox="-4 -4 40 40">
  <defs>
    <style>
      .cls-1 { fill: #8a4aff; }
    </style>
  </defs>

  <!-- Outer group: rotation (6 full rotations over 2s, then 0.5s pause) -->
  <g>
    <animateTransform
      attributeName="transform"
      type="rotate"
      values="0 16 16; 1080 16 16; 1080 16 16"
      keyTimes="0; 0.8; 1"
      keySplines="0.4 0 0.6 1; 0 0 1 1"
      calcMode="spline"
      dur="2.5s"
      repeatCount="indefinite"
    />

    <!-- Blade 0: Right (0deg) -- expands +X -->
    <g>
      <animateTransform
        attributeName="transform"
        type="translate"
        values="0 0; 5.4 0; 0 0; 0 0"
        keyTimes="0; 0.4; 0.8; 1"
        keySplines="0.42 0 0.58 1; 0.42 0 0.58 1; 0 0 1 1"
        calcMode="spline"
        dur="2.5s"
        repeatCount="indefinite"
      />
      <path class="cls-1" d="M29.65,22.88h-2.82c-1.83-.13-2.74-1.02-2.74-2.67v-2.13c0-.67-.12-1.3-.35-1.89-.23-.59-.55-1.13-.95-1.6-.4-.48-.88-.87-1.43-1.18s-1.17-.5-1.84-.58l-1.74-.19h-1.78c.62-1.08,1.47-1.94,2.55-2.57s2.28-.95,3.6-.95,2.51.31,3.52.93,1.86,1.48,2.55,2.59c.33.59.61,1.19.81,1.8.21.61.37,1.24.5,1.91.03.15.04.41.06.77,0,.36.03.74.04,1.14s.02.77.02,1.12c0,0,0,3.5,0,3.5Z"/>
    </g>

    <!-- Blade 1: Left (180deg) -- expands -X -->
    <g>
      <animateTransform
        attributeName="transform"
        type="translate"
        values="0 0; -5.4 0; 0 0; 0 0"
        keyTimes="0; 0.4; 0.8; 1"
        keySplines="0.42 0 0.58 1; 0.42 0 0.58 1; 0 0 1 1"
        calcMode="spline"
        dur="2.5s"
        repeatCount="indefinite"
      />
      <path class="cls-1" d="M16,19.36c-.59,1.08-1.43,1.94-2.51,2.57s-2.28.95-3.6.95c-1.06,0-2.03-.2-2.92-.6s-1.66-.96-2.3-1.68c-.57-.72-1-1.42-1.31-2.09s-.54-1.35-.7-2.05c-.15-.7-.25-1.42-.27-2.18-.03-.76-.04-1.57-.04-2.42v-2.74s2.82,0,2.82,0c1.83.13,2.74,1.02,2.74,2.67v2.13c0,.67.12,1.3.35,1.89s.55,1.12.95,1.59c.4.46.88.86,1.45,1.18.57.32,1.17.52,1.82.6l1.74.19h1.78s0,0,0,0Z"/>
    </g>

    <!-- Blade 2: Top (-90deg) -- expands -Y -->
    <g>
      <animateTransform
        attributeName="transform"
        type="translate"
        values="0 0; 0 -5.4; 0 0; 0 0"
        keyTimes="0; 0.4; 0.8; 1"
        keySplines="0.42 0 0.58 1; 0.42 0 0.58 1; 0 0 1 1"
        calcMode="spline"
        dur="2.5s"
        repeatCount="indefinite"
      />
      <path class="cls-1" d="M22.88,2.35v2.82c-.13,1.83-1.02,2.74-2.67,2.74h-2.13c-.67,0-1.3.12-1.89.35-.59.23-1.13.55-1.6.95-.48.4-.87.88-1.18,1.43s-.5,1.17-.58,1.84l-.19,1.74v1.78c-1.08-.62-1.94-1.47-2.57-2.55s-.95-2.28-.95-3.6.31-2.51.93-3.52,1.48-1.86,2.59-2.55c.59-.33,1.19-.61,1.8-.81.61-.21,1.24-.37,1.91-.5.15-.03.41-.04.77-.06.36,0,.74-.03,1.14-.04.4,0,.77-.02,1.12-.02h.75s2.74,0,2.74,0h.01Z"/>
    </g>

    <!-- Blade 3: Bottom (90deg) -- expands +Y -->
    <g>
      <animateTransform
        attributeName="transform"
        type="translate"
        values="0 0; 0 5.4; 0 0; 0 0"
        keyTimes="0; 0.4; 0.8; 1"
        keySplines="0.42 0 0.58 1; 0.42 0 0.58 1; 0 0 1 1"
        calcMode="spline"
        dur="2.5s"
        repeatCount="indefinite"
      />
      <path class="cls-1" d="M19.36,16c1.08.59,1.94,1.43,2.57,2.51s.95,2.28.95,3.6c0,1.06-.2,2.03-.6,2.92-.4.89-.96,1.66-1.68,2.3-.72.57-1.42,1-2.09,1.31s-1.35.54-2.05.7c-.7.15-1.42.25-2.18.27-.76.03-1.57.04-2.42.04h-2.74s0-2.82,0-2.82c.13-1.83,1.02-2.74,2.67-2.74h2.13c.67,0,1.3-.12,1.89-.35s1.12-.55,1.59-.95c.46-.4.86-.88,1.18-1.45.32-.57.52-1.17.6-1.82l.19-1.74v-1.78s0,0,0,0Z"/>
    </g>

  </g>
</svg>
